<svg width="305" height="38" viewBox="0 0 305 38" fill="none" xmlns="http://www.w3.org/2000/svg">
<path d="M14.3409 10.8182V14.2273H0.227273V10.8182H14.3409ZM4.45455 37V7.20455C4.45455 5.70454 4.80682 4.45454 5.51136 3.45454C6.21591 2.45454 7.13068 1.70454 8.25568 1.20454C9.38068 0.704543 10.5682 0.454543 11.8182 0.454543C12.8068 0.454543 13.6136 0.534089 14.2386 0.693181C14.8636 0.852271 15.3295 0.999998 15.6364 1.13636L14.4773 4.61364C14.2727 4.54545 13.9886 4.46023 13.625 4.35795C13.2727 4.25568 12.8068 4.20454 12.2273 4.20454C10.8977 4.20454 9.9375 4.53977 9.34659 5.21023C8.76705 5.88068 8.47727 6.86364 8.47727 8.15909V37H4.45455ZM26.9332 37.6136C25.2741 37.6136 23.7685 37.3011 22.4162 36.6761C21.0639 36.0398 19.9901 35.125 19.1946 33.9318C18.3991 32.7273 18.0014 31.2727 18.0014 29.5682C18.0014 28.0682 18.2969 26.8523 18.8878 25.9205C19.4787 24.9773 20.2685 24.2386 21.2571 23.7045C22.2457 23.1705 23.3366 22.7727 24.5298 22.5114C25.7344 22.2386 26.9446 22.0227 28.1605 21.8636C29.7514 21.6591 31.0412 21.5057 32.0298 21.4034C33.0298 21.2898 33.7571 21.1023 34.2116 20.8409C34.6776 20.5795 34.9105 20.125 34.9105 19.4773V19.3409C34.9105 17.6591 34.4503 16.3523 33.5298 15.4205C32.6207 14.4886 31.2401 14.0227 29.3878 14.0227C27.4673 14.0227 25.9616 14.4432 24.8707 15.2841C23.7798 16.125 23.0128 17.0227 22.5696 17.9773L18.7514 16.6136C19.4332 15.0227 20.3423 13.7841 21.4787 12.8977C22.6264 12 23.8764 11.375 25.2287 11.0227C26.5923 10.6591 27.9332 10.4773 29.2514 10.4773C30.0923 10.4773 31.0582 10.5795 32.1491 10.7841C33.2514 10.9773 34.3139 11.3807 35.3366 11.9943C36.3707 12.608 37.2287 13.5341 37.9105 14.7727C38.5923 16.0114 38.9332 17.6705 38.9332 19.75V37H34.9105V33.4545H34.706C34.4332 34.0227 33.9787 34.6307 33.3423 35.2784C32.706 35.9261 31.8594 36.4773 30.8026 36.9318C29.7457 37.3864 28.456 37.6136 26.9332 37.6136ZM27.5469 34C29.1378 34 30.4787 33.6875 31.5696 33.0625C32.6719 32.4375 33.5014 31.6307 34.0582 30.642C34.6264 29.6534 34.9105 28.6136 34.9105 27.5227V23.8409C34.7401 24.0455 34.3651 24.233 33.7855 24.4034C33.2173 24.5625 32.5582 24.7045 31.8082 24.8295C31.0696 24.9432 30.348 25.0455 29.6435 25.1364C28.9503 25.2159 28.3878 25.2841 27.956 25.3409C26.9105 25.4773 25.9332 25.6989 25.0241 26.0057C24.1264 26.3011 23.3991 26.75 22.8423 27.3523C22.2969 27.9432 22.0241 28.75 22.0241 29.7727C22.0241 31.1705 22.5412 32.2273 23.5753 32.9432C24.6207 33.6477 25.9446 34 27.5469 34ZM46.2756 37V10.8182H50.1619V14.7727H50.4347C50.9119 13.4773 51.7756 12.4261 53.0256 11.6193C54.2756 10.8125 55.6847 10.4091 57.2528 10.4091C57.5483 10.4091 57.9176 10.4148 58.3608 10.4261C58.804 10.4375 59.1392 10.4545 59.3665 10.4773V14.5682C59.2301 14.5341 58.9176 14.483 58.429 14.4148C57.9517 14.3352 57.446 14.2955 56.9119 14.2955C55.6392 14.2955 54.5028 14.5625 53.5028 15.0966C52.5142 15.6193 51.7301 16.3466 51.1506 17.2784C50.5824 18.1989 50.2983 19.25 50.2983 20.4318V37H46.2756ZM80.6349 26.2955V10.8182H84.6577V37H80.6349V32.5682H80.3622C79.7486 33.8977 78.794 35.0284 77.4986 35.9602C76.2031 36.8807 74.5668 37.3409 72.5895 37.3409C70.9531 37.3409 69.4986 36.983 68.2259 36.267C66.9531 35.5398 65.9531 34.4489 65.2259 32.9943C64.4986 31.5284 64.1349 29.6818 64.1349 27.4545V10.8182H68.1577V27.1818C68.1577 29.0909 68.6918 30.6136 69.7599 31.75C70.8395 32.8864 72.2145 33.4545 73.8849 33.4545C74.8849 33.4545 75.902 33.1989 76.9361 32.6875C77.9815 32.1761 78.8565 31.392 79.5611 30.3352C80.277 29.2784 80.6349 27.9318 80.6349 26.2955ZM95.7756 27.4545L95.7074 22.4773H96.5256L107.98 10.8182H112.957L100.753 23.1591H100.412L95.7756 27.4545ZM92.0256 37V2.09091H96.0483V37H92.0256ZM108.662 37L98.4347 24.0455L101.298 21.25L113.776 37H108.662Z" fill="black"/>
<path d="M131.635 37V10.8182H135.521V14.9091H135.862C136.408 13.5114 137.288 12.4261 138.504 11.6534C139.72 10.8693 141.18 10.4773 142.885 10.4773C144.612 10.4773 146.05 10.8693 147.197 11.6534C148.357 12.4261 149.26 13.5114 149.908 14.9091H150.18C150.851 13.5568 151.857 12.483 153.197 11.6875C154.538 10.8807 156.146 10.4773 158.021 10.4773C160.362 10.4773 162.277 11.2102 163.766 12.6761C165.254 14.1307 165.999 16.3977 165.999 19.4773V37H161.976V19.4773C161.976 17.5455 161.447 16.1648 160.391 15.3352C159.334 14.5057 158.089 14.0909 156.658 14.0909C154.817 14.0909 153.391 14.6477 152.379 15.7614C151.368 16.8636 150.862 18.2614 150.862 19.9545V37H146.771V19.0682C146.771 17.5795 146.288 16.3807 145.322 15.4716C144.357 14.5511 143.112 14.0909 141.589 14.0909C140.544 14.0909 139.567 14.3693 138.658 14.9261C137.76 15.483 137.033 16.2557 136.476 17.2443C135.93 18.2216 135.658 19.3523 135.658 20.6364V37H131.635ZM181.058 37.6136C179.399 37.6136 177.893 37.3011 176.541 36.6761C175.189 36.0398 174.115 35.125 173.32 33.9318C172.524 32.7273 172.126 31.2727 172.126 29.5682C172.126 28.0682 172.422 26.8523 173.013 25.9205C173.604 24.9773 174.393 24.2386 175.382 23.7045C176.371 23.1705 177.462 22.7727 178.655 22.5114C179.859 22.2386 181.07 22.0227 182.286 21.8636C183.876 21.6591 185.166 21.5057 186.155 21.4034C187.155 21.2898 187.882 21.1023 188.337 20.8409C188.803 20.5795 189.036 20.125 189.036 19.4773V19.3409C189.036 17.6591 188.575 16.3523 187.655 15.4205C186.746 14.4886 185.365 14.0227 183.513 14.0227C181.592 14.0227 180.087 14.4432 178.996 15.2841C177.905 16.125 177.138 17.0227 176.695 17.9773L172.876 16.6136C173.558 15.0227 174.467 13.7841 175.604 12.8977C176.751 12 178.001 11.375 179.354 11.0227C180.717 10.6591 182.058 10.4773 183.376 10.4773C184.217 10.4773 185.183 10.5795 186.274 10.7841C187.376 10.9773 188.439 11.3807 189.462 11.9943C190.496 12.608 191.354 13.5341 192.036 14.7727C192.717 16.0114 193.058 17.6705 193.058 19.75V37H189.036V33.4545H188.831C188.558 34.0227 188.104 34.6307 187.467 35.2784C186.831 35.9261 185.984 36.4773 184.928 36.9318C183.871 37.3864 182.581 37.6136 181.058 37.6136ZM181.672 34C183.263 34 184.604 33.6875 185.695 33.0625C186.797 32.4375 187.626 31.6307 188.183 30.642C188.751 29.6534 189.036 28.6136 189.036 27.5227V23.8409C188.865 24.0455 188.49 24.233 187.911 24.4034C187.342 24.5625 186.683 24.7045 185.933 24.8295C185.195 24.9432 184.473 25.0455 183.768 25.1364C183.075 25.2159 182.513 25.2841 182.081 25.3409C181.036 25.4773 180.058 25.6989 179.149 26.0057C178.251 26.3011 177.524 26.75 176.967 27.3523C176.422 27.9432 176.149 28.75 176.149 29.7727C176.149 31.1705 176.666 32.2273 177.7 32.9432C178.746 33.6477 180.07 34 181.672 34ZM204.423 21.25V37H200.401V10.8182H204.287V14.9091H204.628C205.241 13.5795 206.173 12.5114 207.423 11.7045C208.673 10.8864 210.287 10.4773 212.264 10.4773C214.037 10.4773 215.588 10.8409 216.918 11.5682C218.247 12.2841 219.281 13.375 220.02 14.8409C220.759 16.2955 221.128 18.1364 221.128 20.3636V37H217.105V20.6364C217.105 18.5795 216.571 16.9773 215.503 15.8295C214.435 14.6705 212.969 14.0909 211.105 14.0909C209.821 14.0909 208.673 14.3693 207.662 14.9261C206.662 15.483 205.872 16.2955 205.293 17.3636C204.713 18.4318 204.423 19.7273 204.423 21.25ZM247.024 16.6818L243.411 17.7045C243.183 17.1023 242.848 16.517 242.405 15.9489C241.973 15.3693 241.382 14.892 240.632 14.517C239.882 14.142 238.922 13.9545 237.751 13.9545C236.149 13.9545 234.814 14.3239 233.746 15.0625C232.689 15.7898 232.161 16.7159 232.161 17.8409C232.161 18.8409 232.524 19.6307 233.251 20.2102C233.979 20.7898 235.115 21.2727 236.661 21.6591L240.547 22.6136C242.888 23.1818 244.632 24.0511 245.78 25.2216C246.928 26.3807 247.501 27.875 247.501 29.7045C247.501 31.2045 247.07 32.5455 246.206 33.7273C245.354 34.9091 244.161 35.8409 242.626 36.5227C241.092 37.2045 239.308 37.5455 237.274 37.5455C234.604 37.5455 232.393 36.9659 230.643 35.8068C228.893 34.6477 227.786 32.9545 227.32 30.7273L231.138 29.7727C231.501 31.1818 232.189 32.2386 233.2 32.9432C234.223 33.6477 235.558 34 237.206 34C239.081 34 240.57 33.6023 241.672 32.8068C242.786 32 243.342 31.0341 243.342 29.9091C243.342 29 243.024 28.2386 242.388 27.625C241.751 27 240.774 26.5341 239.456 26.2273L235.092 25.2045C232.695 24.6364 230.933 23.7557 229.808 22.5625C228.695 21.358 228.138 19.8523 228.138 18.0455C228.138 16.5682 228.553 15.2614 229.382 14.125C230.223 12.9886 231.365 12.0966 232.808 11.4489C234.263 10.8011 235.911 10.4773 237.751 10.4773C240.342 10.4773 242.376 11.0455 243.854 12.1818C245.342 13.3182 246.399 14.8182 247.024 16.6818ZM270.057 26.2955V10.8182H274.08V37H270.057V32.5682H269.784C269.17 33.8977 268.216 35.0284 266.92 35.9602C265.625 36.8807 263.989 37.3409 262.011 37.3409C260.375 37.3409 258.92 36.983 257.648 36.267C256.375 35.5398 255.375 34.4489 254.648 32.9943C253.92 31.5284 253.557 29.6818 253.557 27.4545V10.8182H257.58V27.1818C257.58 29.0909 258.114 30.6136 259.182 31.75C260.261 32.8864 261.636 33.4545 263.307 33.4545C264.307 33.4545 265.324 33.1989 266.358 32.6875C267.403 32.1761 268.278 31.392 268.983 30.3352C269.699 29.2784 270.057 27.9318 270.057 26.2955ZM281.447 37V10.8182H285.334V14.7727H285.607C286.084 13.4773 286.947 12.4261 288.197 11.6193C289.447 10.8125 290.857 10.4091 292.425 10.4091C292.72 10.4091 293.089 10.4148 293.533 10.4261C293.976 10.4375 294.311 10.4545 294.538 10.4773V14.5682C294.402 14.5341 294.089 14.483 293.601 14.4148C293.124 14.3352 292.618 14.2955 292.084 14.2955C290.811 14.2955 289.675 14.5625 288.675 15.0966C287.686 15.6193 286.902 16.3466 286.322 17.2784C285.754 18.1989 285.47 19.25 285.47 20.4318V37H281.447ZM299.307 37V10.8182H303.33V37H299.307ZM301.352 6.45455C300.568 6.45455 299.892 6.1875 299.324 5.65341C298.767 5.11932 298.489 4.47727 298.489 3.72727C298.489 2.97727 298.767 2.33523 299.324 1.80114C299.892 1.26705 300.568 1 301.352 1C302.136 1 302.807 1.26705 303.364 1.80114C303.932 2.33523 304.216 2.97727 304.216 3.72727C304.216 4.47727 303.932 5.11932 303.364 5.65341C302.807 6.1875 302.136 6.45455 301.352 6.45455Z" fill="#ED5270"/>
</svg>
